<svg width="180" height="85" viewBox="0 0 180 85" fill="none" xmlns="http://www.w3.org/2000/svg">
<path d="M154.5 22.75V19.25H161.5V22.75H154.5ZM156.6 35L151 30.8L153.1 28L158.7 32.2L156.6 35ZM153.1 14L151 11.2L156.6 7L158.7 9.8L153.1 14ZM131.75 33.25V26.25H130C129.037 26.25 128.214 25.9073 127.528 25.2219C126.843 24.5365 126.5 23.7125 126.5 22.75V19.25C126.5 18.2875 126.843 17.4635 127.528 16.7781C128.214 16.0927 129.037 15.75 130 15.75H137L145.75 10.5V31.5L137 26.25H135.25V33.25H131.75ZM147.5 26.8625V15.1375C148.288 15.8375 148.922 16.6906 149.403 17.6969C149.884 18.7031 150.125 19.8042 150.125 21C150.125 22.1958 149.884 23.2969 149.403 24.3031C148.922 25.3094 148.288 26.1625 147.5 26.8625Z" fill="#7E2CCF"/>
<path d="M1.75781 64V33.2383H7.9541V45.499H9.66797V51.5635H7.9541V64H1.75781ZM12.085 51.5635V45.499H13.7988V33.2383H19.9951V64H13.7988V51.5635H12.085ZM22.8516 58.1992V55.958C22.8809 54.083 23.6719 52.6328 25.2246 51.6074C25.6055 51.4023 27.1436 50.8311 29.8389 49.8936C32.9736 48.8389 34.541 47.9014 34.541 47.0811V46.0703C34.5117 45.0156 33.8672 44.4443 32.6074 44.3564V38.9512C34.8047 38.9512 36.6504 39.6982 38.1445 41.1924C39.4922 42.5693 40.166 44.0635 40.166 45.6748V57.1445C40.1953 58.0234 40.6055 58.4922 41.3965 58.5508V64C39.6094 64 38.1738 63.5312 37.0898 62.5938C35.9473 63.502 34.4678 63.9707 32.6514 64V58.5947C32.8857 58.5947 33.1055 58.5654 33.3105 58.5068C34.1309 58.2725 34.541 57.7158 34.541 56.8369V53.2334C33.75 53.7021 32.2119 54.2588 29.9268 54.9033C28.9893 55.1377 28.4473 55.2988 28.3008 55.3867C27.9492 55.5625 27.7588 55.8994 27.7295 56.3975V57.0127C27.7295 57.1885 27.7441 57.3643 27.7734 57.54C27.9492 58.2432 28.7842 58.5947 30.2783 58.5947V64C28.3154 64 26.6455 63.502 25.2686 62.5059C23.6572 61.334 22.8516 59.8984 22.8516 58.1992ZM23.1592 45.2354C23.1885 43.7412 23.8037 42.3789 25.0049 41.1484C26.5283 39.6836 28.3008 38.9512 30.3223 38.9512V44.3564C28.9746 44.3857 28.2861 45.3232 28.2568 47.1689L23.1592 45.2354ZM52.6025 64V58.2871H54.0967C55.0635 58.2285 55.6494 57.833 55.8545 57.1006V45.8506C55.8545 45.4697 55.6201 45.1475 55.1514 44.8838C54.8291 44.7373 54.4775 44.6641 54.0967 44.6641H52.6025V38.9512H54.0967C56.8506 38.9512 58.9893 40.123 60.5127 42.4668C61.2744 43.668 61.6553 44.7666 61.6553 45.7627V57.1885C61.6553 58.5361 61.0693 59.9131 59.8975 61.3193C58.3447 63.0771 56.4111 63.9707 54.0967 64H52.6025ZM44.209 72.7451V38.9512H50.4053V72.7451H44.209ZM73.7402 64V58.2871H75.2344C76.2012 58.2285 76.7871 57.833 76.9922 57.1006V45.8506C76.9922 45.4697 76.7578 45.1475 76.2891 44.8838C75.9668 44.7373 75.6152 44.6641 75.2344 44.6641H73.7402V38.9512H75.2344C77.9883 38.9512 80.127 40.123 81.6504 42.4668C82.4121 43.668 82.793 44.7666 82.793 45.7627V57.1885C82.793 58.5361 82.207 59.9131 81.0352 61.3193C79.4824 63.0771 77.5488 63.9707 75.2344 64H73.7402ZM65.3467 72.7451V38.9512H71.543V72.7451H65.3467ZM86.4404 57.1885V45.6748C86.4697 44.2393 87.1289 42.833 88.418 41.4561C90 39.8154 91.9336 38.9805 94.2188 38.9512V44.4883C93.3691 44.4883 92.7832 44.8545 92.4609 45.5869C92.373 45.7627 92.3291 45.9238 92.3291 46.0703V48.2676H98.877V46.1143C98.8477 45.0303 98.0859 44.4883 96.5918 44.4883V38.9512C98.7305 38.9512 100.605 39.6836 102.217 41.1484C103.623 42.4375 104.341 43.9316 104.37 45.6309V53.9365H92.3291V57.1885C92.5342 58.0381 93.1787 58.5068 94.2627 58.5947V64C91.5088 64 89.3262 62.8721 87.7148 60.6162C86.8652 59.415 86.4404 58.2725 86.4404 57.1885ZM96.5918 64V58.6387C98.1738 58.6094 99.1846 57.8623 99.624 56.3975L104.414 58.1992C103.975 60.0742 102.861 61.583 101.074 62.7256C99.6973 63.5752 98.2031 64 96.5918 64ZM107.754 64V45.7627C107.754 44.2979 108.413 42.8623 109.731 41.4561C111.343 39.7861 113.35 38.9365 115.752 38.9072V44.752C114.521 44.8984 113.848 45.4697 113.73 46.4658V64H107.754ZM117.773 44.752V38.9072C120.615 38.9072 122.856 40.0352 124.497 42.291C125.376 43.5215 125.815 44.6787 125.815 45.7627V64H119.839V46.4658C119.839 45.499 119.297 44.9424 118.213 44.7959C118.066 44.7666 117.92 44.752 117.773 44.752ZM129.683 35.3916C129.683 34.1904 130.225 33.2822 131.309 32.667C131.807 32.374 132.334 32.2275 132.891 32.2275C134.121 32.2275 135.044 32.7695 135.659 33.8535C135.923 34.3516 136.055 34.8643 136.055 35.3916C136.055 36.6221 135.513 37.5449 134.429 38.1602C133.931 38.4238 133.418 38.5557 132.891 38.5557C131.631 38.5557 130.693 37.999 130.078 36.8857C129.814 36.417 129.683 35.9189 129.683 35.3916ZM129.99 64V40.2695H135.879V64H129.99ZM139.922 64V45.7627C139.922 44.2979 140.581 42.8623 141.899 41.4561C143.511 39.7861 145.518 38.9365 147.92 38.9072V44.752C146.689 44.8984 146.016 45.4697 145.898 46.4658V64H139.922ZM149.941 44.752V38.9072C152.783 38.9072 155.024 40.0352 156.665 42.291C157.544 43.5215 157.983 44.6787 157.983 45.7627V64H152.007V46.4658C152.007 45.499 151.465 44.9424 150.381 44.7959C150.234 44.7666 150.088 44.752 149.941 44.752ZM160.532 72.3496L161.895 66.9443H170.596C171.533 66.915 172.134 66.4902 172.397 65.6699C172.427 65.6113 172.441 65.5674 172.441 65.5381V63.4727C171.826 63.5898 171.167 63.6484 170.464 63.6484V58.1992C171.724 58.1406 172.383 57.6572 172.441 56.749V45.543C172.441 45.1328 172.178 44.7666 171.65 44.4443C171.299 44.2393 170.903 44.1367 170.464 44.1367V38.6436C171.167 38.6436 171.826 38.7314 172.441 38.9072V38.6436H178.066V65.5381C178.066 66.8271 177.495 68.1602 176.353 69.5371C174.829 71.3828 172.939 72.3203 170.684 72.3496H160.532ZM160.972 56.8809V45.3232C161.001 43.917 161.631 42.54 162.861 41.1924C164.385 39.5225 166.289 38.6729 168.574 38.6436V44.1367C167.52 44.1367 166.846 44.5176 166.553 45.2793C166.523 45.3672 166.509 45.4258 166.509 45.4551V56.8369C166.509 57.5107 166.934 57.9355 167.783 58.1113C168.018 58.1699 168.281 58.1992 168.574 58.1992V63.6484C165.82 63.6484 163.682 62.4912 162.158 60.1768C161.367 59.0049 160.972 57.9062 160.972 56.8809Z" fill="#7E2CCF"/>
</svg>
