<svg width="19" height="20" viewBox="0 0 19 20" fill="none" xmlns="http://www.w3.org/2000/svg">
<path d="M8.7 16.35L5.15 12.8L6.6 11.35L8.7 13.45L12.9 9.25L14.35 10.7L8.7 16.35ZM2.75 20C2.2 20 1.72917 19.8042 1.3375 19.4125C0.945833 19.0208 0.75 18.55 0.75 18V4C0.75 3.45 0.945833 2.97917 1.3375 2.5875C1.72917 2.19583 2.2 2 2.75 2H3.75V0H5.75V2H13.75V0H15.75V2H16.75C17.3 2 17.7708 2.19583 18.1625 2.5875C18.5542 2.97917 18.75 3.45 18.75 4V18C18.75 18.55 18.5542 19.0208 18.1625 19.4125C17.7708 19.8042 17.3 20 16.75 20H2.75ZM2.75 18H16.75V8H2.75V18ZM2.75 6H16.75V4H2.75V6Z" fill="#5F6368"/>
</svg>
