<svg width="14" height="15" viewBox="0 0 14 15" fill="none" xmlns="http://www.w3.org/2000/svg">
<path d="M8.875 12C8.35 12 7.90625 11.8188 7.54375 11.4563C7.18125 11.0938 7 10.65 7 10.125C7 9.6 7.18125 9.15625 7.54375 8.79375C7.90625 8.43125 8.35 8.25 8.875 8.25C9.4 8.25 9.84375 8.43125 10.2063 8.79375C10.5688 9.15625 10.75 9.6 10.75 10.125C10.75 10.65 10.5688 11.0938 10.2063 11.4563C9.84375 11.8188 9.4 12 8.875 12ZM1.75 15C1.3375 15 0.984375 14.8531 0.690625 14.5594C0.396875 14.2656 0.25 13.9125 0.25 13.5V3C0.25 2.5875 0.396875 2.23438 0.690625 1.94063C0.984375 1.64688 1.3375 1.5 1.75 1.5H2.5V0H4V1.5H10V0H11.5V1.5H12.25C12.6625 1.5 13.0156 1.64688 13.3094 1.94063C13.6031 2.23438 13.75 2.5875 13.75 3V13.5C13.75 13.9125 13.6031 14.2656 13.3094 14.5594C13.0156 14.8531 12.6625 15 12.25 15H1.75ZM1.75 13.5H12.25V6H1.75V13.5Z" fill="#5F6368"/>
</svg>
