<svg width="14" height="14" viewBox="0 0 14 14" fill="none" xmlns="http://www.w3.org/2000/svg">
<path d="M4.89935 9.91797L6.99935 7.81797L9.09935 9.91797L9.91602 9.1013L7.81602 7.0013L9.91602 4.9013L9.09935 4.08464L6.99935 6.18464L4.89935 4.08464L4.08268 4.9013L6.18268 7.0013L4.08268 9.1013L4.89935 9.91797ZM6.99935 12.8346C6.1924 12.8346 5.43407 12.6815 4.72435 12.3753C4.01463 12.069 3.39727 11.6534 2.87227 11.1284C2.34727 10.6034 1.93164 9.98602 1.62539 9.2763C1.31914 8.56658 1.16602 7.80825 1.16602 7.0013C1.16602 6.19436 1.31914 5.43602 1.62539 4.7263C1.93164 4.01658 2.34727 3.39922 2.87227 2.87422C3.39727 2.34922 4.01463 1.93359 4.72435 1.62734C5.43407 1.32109 6.1924 1.16797 6.99935 1.16797C7.80629 1.16797 8.56463 1.32109 9.27435 1.62734C9.98407 1.93359 10.6014 2.34922 11.1264 2.87422C11.6514 3.39922 12.0671 4.01658 12.3733 4.7263C12.6796 5.43602 12.8327 6.19436 12.8327 7.0013C12.8327 7.80825 12.6796 8.56658 12.3733 9.2763C12.0671 9.98602 11.6514 10.6034 11.1264 11.1284C10.6014 11.6534 9.98407 12.069 9.27435 12.3753C8.56463 12.6815 7.80629 12.8346 6.99935 12.8346ZM6.99935 11.668C8.30213 11.668 9.4056 11.2159 10.3098 10.3117C11.2139 9.40755 11.666 8.30408 11.666 7.0013C11.666 5.69852 11.2139 4.59505 10.3098 3.69089C9.4056 2.78672 8.30213 2.33464 6.99935 2.33464C5.69657 2.33464 4.5931 2.78672 3.68893 3.69089C2.78477 4.59505 2.33268 5.69852 2.33268 7.0013C2.33268 8.30408 2.78477 9.40755 3.68893 10.3117C4.5931 11.2159 5.69657 11.668 6.99935 11.668Z" fill="#5F6368"/>
</svg>
