<svg width="21" height="19" viewBox="0 0 21 19" fill="none" xmlns="http://www.w3.org/2000/svg">
<path d="M10.25 18.9984L8.8 17.6984C7.11667 16.1818 5.725 14.8734 4.625 13.7734C3.525 12.6734 2.65 11.6859 2 10.8109C1.35 9.93594 0.895833 9.13177 0.6375 8.39844C0.379167 7.6651 0.25 6.9151 0.25 6.14844C0.25 4.58177 0.775 3.27344 1.825 2.22344C2.875 1.17344 4.18333 0.648438 5.75 0.648438C6.61667 0.648438 7.44167 0.831771 8.225 1.19844C9.00833 1.5651 9.68333 2.08177 10.25 2.74844C10.8167 2.08177 11.4917 1.5651 12.275 1.19844C13.0583 0.831771 13.8833 0.648438 14.75 0.648438C16.3167 0.648438 17.625 1.17344 18.675 2.22344C19.725 3.27344 20.25 4.58177 20.25 6.14844C20.25 6.9151 20.1208 7.6651 19.8625 8.39844C19.6042 9.13177 19.15 9.93594 18.5 10.8109C17.85 11.6859 16.975 12.6734 15.875 13.7734C14.775 14.8734 13.3833 16.1818 11.7 17.6984L10.25 18.9984ZM10.25 16.2984C11.85 14.8651 13.1667 13.6359 14.2 12.6109C15.2333 11.5859 16.05 10.6943 16.65 9.93594C17.25 9.1776 17.6667 8.5026 17.9 7.91094C18.1333 7.31927 18.25 6.73177 18.25 6.14844C18.25 5.14844 17.9167 4.3151 17.25 3.64844C16.5833 2.98177 15.75 2.64844 14.75 2.64844C13.9667 2.64844 13.2417 2.86927 12.575 3.31094C11.9083 3.7526 11.45 4.3151 11.2 4.99844H9.3C9.05 4.3151 8.59167 3.7526 7.925 3.31094C7.25833 2.86927 6.53333 2.64844 5.75 2.64844C4.75 2.64844 3.91667 2.98177 3.25 3.64844C2.58333 4.3151 2.25 5.14844 2.25 6.14844C2.25 6.73177 2.36667 7.31927 2.6 7.91094C2.83333 8.5026 3.25 9.1776 3.85 9.93594C4.45 10.6943 5.26667 11.5859 6.3 12.6109C7.33333 13.6359 8.65 14.8651 10.25 16.2984Z" fill="currentColor"/>
</svg>
