<svg width="16" height="15" viewBox="0 0 16 15" fill="none" xmlns="http://www.w3.org/2000/svg">
<path d="M8 15C6.975 15 6.00625 14.8031 5.09375 14.4094C4.18125 14.0156 3.38438 13.4781 2.70312 12.7969C2.02188 12.1156 1.48438 11.3188 1.09063 10.4062C0.696875 9.49375 0.5 8.525 0.5 7.5C0.5 6.4625 0.696875 5.49063 1.09063 4.58438C1.48438 3.67813 2.02188 2.88438 2.70312 2.20312C3.38438 1.52188 4.18125 0.984375 5.09375 0.590625C6.00625 0.196875 6.975 0 8 0C9.0375 0 10.0094 0.196875 10.9156 0.590625C11.8219 0.984375 12.6156 1.52188 13.2969 2.20312C13.9781 2.88438 14.5156 3.67813 14.9094 4.58438C15.3031 5.49063 15.5 6.4625 15.5 7.5C15.5 8.525 15.3031 9.49375 14.9094 10.4062C14.5156 11.3188 13.9781 12.1156 13.2969 12.7969C12.6156 13.4781 11.8219 14.0156 10.9156 14.4094C10.0094 14.8031 9.0375 15 8 15ZM8 13.4625C8.325 13.0125 8.60625 12.5438 8.84375 12.0563C9.08125 11.5688 9.275 11.05 9.425 10.5H6.575C6.725 11.05 6.91875 11.5688 7.15625 12.0563C7.39375 12.5438 7.675 13.0125 8 13.4625ZM6.05 13.1625C5.825 12.75 5.62813 12.3219 5.45938 11.8781C5.29063 11.4344 5.15 10.975 5.0375 10.5H2.825C3.1875 11.125 3.64063 11.6688 4.18438 12.1313C4.72813 12.5938 5.35 12.9375 6.05 13.1625ZM9.95 13.1625C10.65 12.9375 11.2719 12.5938 11.8156 12.1313C12.3594 11.6688 12.8125 11.125 13.175 10.5H10.9625C10.85 10.975 10.7094 11.4344 10.5406 11.8781C10.3719 12.3219 10.175 12.75 9.95 13.1625ZM2.1875 9H4.7375C4.7 8.75 4.67188 8.50313 4.65313 8.25938C4.63438 8.01562 4.625 7.7625 4.625 7.5C4.625 7.2375 4.63438 6.98438 4.65313 6.74063C4.67188 6.49688 4.7 6.25 4.7375 6H2.1875C2.125 6.25 2.07813 6.49688 2.04688 6.74063C2.01563 6.98438 2 7.2375 2 7.5C2 7.7625 2.01563 8.01562 2.04688 8.25938C2.07813 8.50313 2.125 8.75 2.1875 9ZM6.2375 9H9.7625C9.8 8.75 9.82812 8.50313 9.84688 8.25938C9.86563 8.01562 9.875 7.7625 9.875 7.5C9.875 7.2375 9.86563 6.98438 9.84688 6.74063C9.82812 6.49688 9.8 6.25 9.7625 6H6.2375C6.2 6.25 6.17188 6.49688 6.15313 6.74063C6.13438 6.98438 6.125 7.2375 6.125 7.5C6.125 7.7625 6.13438 8.01562 6.15313 8.25938C6.17188 8.50313 6.2 8.75 6.2375 9ZM11.2625 9H13.8125C13.875 8.75 13.9219 8.50313 13.9531 8.25938C13.9844 8.01562 14 7.7625 14 7.5C14 7.2375 13.9844 6.98438 13.9531 6.74063C13.9219 6.49688 13.875 6.25 13.8125 6H11.2625C11.3 6.25 11.3281 6.49688 11.3469 6.74063C11.3656 6.98438 11.375 7.2375 11.375 7.5C11.375 7.7625 11.3656 8.01562 11.3469 8.25938C11.3281 8.50313 11.3 8.75 11.2625 9ZM10.9625 4.5H13.175C12.8125 3.875 12.3594 3.33125 11.8156 2.86875C11.2719 2.40625 10.65 2.0625 9.95 1.8375C10.175 2.25 10.3719 2.67813 10.5406 3.12188C10.7094 3.56563 10.85 4.025 10.9625 4.5ZM6.575 4.5H9.425C9.275 3.95 9.08125 3.43125 8.84375 2.94375C8.60625 2.45625 8.325 1.9875 8 1.5375C7.675 1.9875 7.39375 2.45625 7.15625 2.94375C6.91875 3.43125 6.725 3.95 6.575 4.5ZM2.825 4.5H5.0375C5.15 4.025 5.29063 3.56563 5.45938 3.12188C5.62813 2.67813 5.825 2.25 6.05 1.8375C5.35 2.0625 4.72813 2.40625 4.18438 2.86875C3.64063 3.33125 3.1875 3.875 2.825 4.5Z" fill="#5F6368"/>
</svg>
