<svg width="14" height="15" viewBox="0 0 14 15" fill="none" xmlns="http://www.w3.org/2000/svg">
<path d="M9.25 14.25L4.75 12.675L1.2625 14.025C1.0125 14.125 0.78125 14.0969 0.56875 13.9406C0.35625 13.7844 0.25 13.575 0.25 13.3125V2.8125C0.25 2.65 0.296875 2.50625 0.390625 2.38125C0.484375 2.25625 0.6125 2.1625 0.775 2.1L4.75 0.75L9.25 2.325L12.7375 0.975C12.9875 0.875 13.2188 0.903125 13.4313 1.05938C13.6438 1.21563 13.75 1.425 13.75 1.6875V12.1875C13.75 12.35 13.7031 12.4938 13.6094 12.6188C13.5156 12.7438 13.3875 12.8375 13.225 12.9L9.25 14.25ZM8.5 12.4125V3.6375L5.5 2.5875V11.3625L8.5 12.4125Z" fill="#7A7A7A"/>
</svg>
