<svg width="16" height="12" viewBox="0 0 16 12" fill="none" xmlns="http://www.w3.org/2000/svg">
<path d="M8 9.75C8.2125 9.75 8.39063 9.67813 8.53438 9.53438C8.67813 9.39062 8.75 9.2125 8.75 9C8.75 8.7875 8.67813 8.60938 8.53438 8.46563C8.39063 8.32188 8.2125 8.25 8 8.25C7.7875 8.25 7.60938 8.32188 7.46563 8.46563C7.32188 8.60938 7.25 8.7875 7.25 9C7.25 9.2125 7.32188 9.39062 7.46563 9.53438C7.60938 9.67813 7.7875 9.75 8 9.75ZM8 6.75C8.2125 6.75 8.39063 6.67813 8.53438 6.53438C8.67813 6.39063 8.75 6.2125 8.75 6C8.75 5.7875 8.67813 5.60938 8.53438 5.46563C8.39063 5.32188 8.2125 5.25 8 5.25C7.7875 5.25 7.60938 5.32188 7.46563 5.46563C7.32188 5.60938 7.25 5.7875 7.25 6C7.25 6.2125 7.32188 6.39063 7.46563 6.53438C7.60938 6.67813 7.7875 6.75 8 6.75ZM8 3.75C8.2125 3.75 8.39063 3.67813 8.53438 3.53438C8.67813 3.39063 8.75 3.2125 8.75 3C8.75 2.7875 8.67813 2.60938 8.53438 2.46563C8.39063 2.32188 8.2125 2.25 8 2.25C7.7875 2.25 7.60938 2.32188 7.46563 2.46563C7.32188 2.60938 7.25 2.7875 7.25 3C7.25 3.2125 7.32188 3.39063 7.46563 3.53438C7.60938 3.67813 7.7875 3.75 8 3.75ZM14 12H2C1.5875 12 1.23438 11.8531 0.940625 11.5594C0.646875 11.2656 0.5 10.9125 0.5 10.5V7.5C0.9125 7.5 1.26562 7.35313 1.55938 7.05938C1.85313 6.76563 2 6.4125 2 6C2 5.5875 1.85313 5.23438 1.55938 4.94063C1.26562 4.64688 0.9125 4.5 0.5 4.5V1.5C0.5 1.0875 0.646875 0.734375 0.940625 0.440625C1.23438 0.146875 1.5875 0 2 0H14C14.4125 0 14.7656 0.146875 15.0594 0.440625C15.3531 0.734375 15.5 1.0875 15.5 1.5V4.5C15.0875 4.5 14.7344 4.64688 14.4406 4.94063C14.1469 5.23438 14 5.5875 14 6C14 6.4125 14.1469 6.76563 14.4406 7.05938C14.7344 7.35313 15.0875 7.5 15.5 7.5V10.5C15.5 10.9125 15.3531 11.2656 15.0594 11.5594C14.7656 11.8531 14.4125 12 14 12Z" fill="url(#paint0_linear_1_528)"/>
<defs>
<linearGradient id="paint0_linear_1_528" x1="8" y1="0" x2="8" y2="12" gradientUnits="userSpaceOnUse">
<stop stop-color="#ABAAD5"/>
<stop offset="1" stop-color="#5F6368"/>
</linearGradient>
</defs>
</svg>
