<svg width="23" height="24" viewBox="0 0 23 24" fill="none" xmlns="http://www.w3.org/2000/svg">
<path d="M21 23.25L13.125 15.375C12.5 15.875 11.7812 16.2708 10.9688 16.5625C10.1562 16.8542 9.29167 17 8.375 17C6.10417 17 4.18229 16.2135 2.60938 14.6406C1.03646 13.0677 0.25 11.1458 0.25 8.875C0.25 6.60417 1.03646 4.68229 2.60938 3.10938C4.18229 1.53646 6.10417 0.75 8.375 0.75C10.6458 0.75 12.5677 1.53646 14.1406 3.10938C15.7135 4.68229 16.5 6.60417 16.5 8.875C16.5 9.79167 16.3542 10.6562 16.0625 11.4688C15.7708 12.2812 15.375 13 14.875 13.625L22.75 21.5L21 23.25ZM8.375 14.5C9.9375 14.5 11.2656 13.9531 12.3594 12.8594C13.4531 11.7656 14 10.4375 14 8.875C14 7.3125 13.4531 5.98438 12.3594 4.89062C11.2656 3.79688 9.9375 3.25 8.375 3.25C6.8125 3.25 5.48438 3.79688 4.39062 4.89062C3.29688 5.98438 2.75 7.3125 2.75 8.875C2.75 10.4375 3.29688 11.7656 4.39062 12.8594C5.48438 13.9531 6.8125 14.5 8.375 14.5Z" fill="#5F6368"/>
</svg>
