<svg width="20" height="20" viewBox="0 0 20 20" fill="none" xmlns="http://www.w3.org/2000/svg">
<path d="M13.998 16.5179C13.3314 16.5179 12.7647 16.3019 12.298 15.8698C11.8314 15.4377 11.598 14.913 11.598 14.2957C11.598 14.2216 11.618 14.0488 11.658 13.7772L6.03805 10.7402C5.82471 10.9253 5.57805 11.0704 5.29805 11.1753C5.01805 11.2803 4.71805 11.3328 4.39805 11.3328C3.73138 11.3328 3.16471 11.1167 2.69805 10.6846C2.23138 10.2525 1.99805 9.72782 1.99805 9.11053C1.99805 8.49325 2.23138 7.96856 2.69805 7.53646C3.16471 7.10436 3.73138 6.88831 4.39805 6.88831C4.71805 6.88831 5.01805 6.94078 5.29805 7.04572C5.57805 7.15066 5.82471 7.29572 6.03805 7.4809L11.658 4.44387C11.6314 4.35745 11.6147 4.27411 11.608 4.19387C11.6014 4.11362 11.598 4.02411 11.598 3.92535C11.598 3.30806 11.8314 2.78337 12.298 2.35127C12.7647 1.91917 13.3314 1.70312 13.998 1.70312C14.6647 1.70312 15.2314 1.91917 15.698 2.35127C16.1647 2.78337 16.398 3.30806 16.398 3.92535C16.398 4.54263 16.1647 5.06732 15.698 5.49942C15.2314 5.93152 14.6647 6.14757 13.998 6.14757C13.678 6.14757 13.378 6.0951 13.098 5.99016C12.818 5.88522 12.5714 5.74016 12.358 5.55498L6.73805 8.59201C6.76471 8.67843 6.78138 8.76177 6.78805 8.84201C6.79471 8.92226 6.79805 9.01177 6.79805 9.11053C6.79805 9.2093 6.79471 9.2988 6.78805 9.37905C6.78138 9.4593 6.76471 9.54263 6.73805 9.62905L12.358 12.6661C12.5714 12.4809 12.818 12.3358 13.098 12.2309C13.378 12.126 13.678 12.0735 13.998 12.0735C14.6647 12.0735 15.2314 12.2895 15.698 12.7216C16.1647 13.1537 16.398 13.6784 16.398 14.2957C16.398 14.913 16.1647 15.4377 15.698 15.8698C15.2314 16.3019 14.6647 16.5179 13.998 16.5179ZM13.998 15.0365C14.2247 15.0365 14.4147 14.9655 14.568 14.8235C14.7214 14.6815 14.798 14.5056 14.798 14.2957C14.798 14.0858 14.7214 13.9099 14.568 13.7679C14.4147 13.626 14.2247 13.555 13.998 13.555C13.7714 13.555 13.5814 13.626 13.428 13.7679C13.2747 13.9099 13.198 14.0858 13.198 14.2957C13.198 14.5056 13.2747 14.6815 13.428 14.8235C13.5814 14.9655 13.7714 15.0365 13.998 15.0365ZM4.39805 9.85127C4.62471 9.85127 4.81471 9.78029 4.96805 9.63831C5.12138 9.49634 5.19805 9.32041 5.19805 9.11053C5.19805 8.90066 5.12138 8.72473 4.96805 8.58275C4.81471 8.44078 4.62471 8.36979 4.39805 8.36979C4.17138 8.36979 3.98138 8.44078 3.82805 8.58275C3.67471 8.72473 3.59805 8.90066 3.59805 9.11053C3.59805 9.32041 3.67471 9.49634 3.82805 9.63831C3.98138 9.78029 4.17138 9.85127 4.39805 9.85127ZM13.998 4.66609C14.2247 4.66609 14.4147 4.5951 14.568 4.45312C14.7214 4.31115 14.798 4.13522 14.798 3.92535C14.798 3.71547 14.7214 3.53954 14.568 3.39757C14.4147 3.25559 14.2247 3.18461 13.998 3.18461C13.7714 3.18461 13.5814 3.25559 13.428 3.39757C13.2747 3.53954 13.198 3.71547 13.198 3.92535C13.198 4.13522 13.2747 4.31115 13.428 4.45312C13.5814 4.5951 13.7714 4.66609 13.998 4.66609Z" fill="#5F6368"/>
</svg>
