<svg width="12" height="15" viewBox="0 0 12 15" fill="none" xmlns="http://www.w3.org/2000/svg">
<path d="M3 13.5H9V11.25C9 10.425 8.70625 9.71875 8.11875 9.13125C7.53125 8.54375 6.825 8.25 6 8.25C5.175 8.25 4.46875 8.54375 3.88125 9.13125C3.29375 9.71875 3 10.425 3 11.25V13.5ZM0 15V13.5H1.5V11.25C1.5 10.4875 1.67813 9.77188 2.03438 9.10313C2.39062 8.43438 2.8875 7.9 3.525 7.5C2.8875 7.1 2.39062 6.56563 2.03438 5.89688C1.67813 5.22813 1.5 4.5125 1.5 3.75V1.5H0V0H12V1.5H10.5V3.75C10.5 4.5125 10.3219 5.22813 9.96563 5.89688C9.60938 6.56563 9.1125 7.1 8.475 7.5C9.1125 7.9 9.60938 8.43438 9.96563 9.10313C10.3219 9.77188 10.5 10.4875 10.5 11.25V13.5H12V15H0Z" fill="#5F6368"/>
</svg>
