<svg width="12" height="13" viewBox="0 0 12 13" fill="none" xmlns="http://www.w3.org/2000/svg">
<path d="M6 6.5C5.175 6.5 4.46875 6.20625 3.88125 5.61875C3.29375 5.03125 3 4.325 3 3.5C3 2.675 3.29375 1.96875 3.88125 1.38125C4.46875 0.79375 5.175 0.5 6 0.5C6.825 0.5 7.53125 0.79375 8.11875 1.38125C8.70625 1.96875 9 2.675 9 3.5C9 4.325 8.70625 5.03125 8.11875 5.61875C7.53125 6.20625 6.825 6.5 6 6.5ZM0 12.5V10.4C0 9.975 0.109375 9.58438 0.328125 9.22813C0.546875 8.87188 0.8375 8.6 1.2 8.4125C1.975 8.025 2.7625 7.73438 3.5625 7.54063C4.3625 7.34688 5.175 7.25 6 7.25C6.825 7.25 7.6375 7.34688 8.4375 7.54063C9.2375 7.73438 10.025 8.025 10.8 8.4125C11.1625 8.6 11.4531 8.87188 11.6719 9.22813C11.8906 9.58438 12 9.975 12 10.4V12.5H0Z" fill="#5F6368"/>
</svg>
