<svg width="15" height="16" viewBox="0 0 15 16" fill="none" xmlns="http://www.w3.org/2000/svg">
<path d="M13.8313 15.4688L12.6125 14.25H11.75V13.3875L8.8625 10.5H7.25C6.7 10.5 6.275 10.2656 5.975 9.79688C5.675 9.32812 5.6375 8.8375 5.8625 8.325L6.125 7.7625L0.03125 1.66875L1.1 0.6L14.9 14.4L13.8313 15.4688ZM13.25 10.6125L11.2625 8.625H11.75C12.1625 8.625 12.5156 8.77188 12.8094 9.06563C13.1031 9.35938 13.25 9.7125 13.25 10.125V10.6125ZM10.1188 7.48125L6.3875 3.75H9.4625C10.025 3.75 10.4531 3.97813 10.7469 4.43438C11.0406 4.89062 11.075 5.375 10.85 5.8875L10.1188 7.48125ZM5 15C3.9625 15 3.07813 14.6344 2.34688 13.9031C1.61563 13.1719 1.25 12.2875 1.25 11.25C1.25 10.2125 1.61563 9.32812 2.34688 8.59688C3.07813 7.86563 3.9625 7.5 5 7.5V9C4.375 9 3.84375 9.21875 3.40625 9.65625C2.96875 10.0938 2.75 10.625 2.75 11.25C2.75 11.875 2.96875 12.4062 3.40625 12.8438C3.84375 13.2813 4.375 13.5 5 13.5C5.625 13.5 6.15625 13.2813 6.59375 12.8438C7.03125 12.4062 7.25 11.875 7.25 11.25H8.75C8.75 12.2875 8.38438 13.1719 7.65313 13.9031C6.92188 14.6344 6.0375 15 5 15ZM11 3.375C10.5875 3.375 10.2344 3.22813 9.94063 2.93438C9.64688 2.64062 9.5 2.2875 9.5 1.875C9.5 1.4625 9.64688 1.10938 9.94063 0.815625C10.2344 0.521875 10.5875 0.375 11 0.375C11.4125 0.375 11.7656 0.521875 12.0594 0.815625C12.3531 1.10938 12.5 1.4625 12.5 1.875C12.5 2.2875 12.3531 2.64062 12.0594 2.93438C11.7656 3.22813 11.4125 3.375 11 3.375Z" fill="#5F6368"/>
</svg>
